<svg height="512" viewBox="0 0 64 64" width="512" xmlns="http://www.w3.org/2000/svg" xmlns:xlink="http://www.w3.org/1999/xlink"><linearGradient id="gradient_ice" gradientUnits="userSpaceOnUse" x1="-6.793" x2="47.48" y1="56.85" y2="-6.608"><stop offset="0" stop-color="#fff200"/><stop offset="1" stop-color="#cd118c"/></linearGradient><linearGradient id="gradient_ice-2" x1="-2.203" x2="52.07" xlink:href="#gradient_ice" y1="60.776" y2="-2.682"/><linearGradient id="gradient_ice-4" x1="-14.468" x2="39.805" xlink:href="#gradient_ice" y1="50.286" y2="-13.172"/><linearGradient id="gradient_ice-5" x1="-13.154" x2="41.12" xlink:href="#gradient_ice" y1="51.41" y2="-12.048"/><linearGradient id="gradient_ice-6" x1="-9.445" x2="44.828" xlink:href="#gradient_ice" y1="54.582" y2="-8.876"/><linearGradient id="gradient_ice-7" x1="-12.416" x2="41.857" xlink:href="#gradient_ice" y1="52.041" y2="-11.418"/><linearGradient id="gradient_ice-8" x1="8.527" x2="62.801" xlink:href="#gradient_ice" y1="69.953" y2="6.495"/><linearGradient id="gradient_ice-9" x1="13.55" x2="67.824" xlink:href="#gradient_ice" y1="74.249" y2="10.791"/><linearGradient id="gradient_ice-10" x1="19.987" x2="74.26" xlink:href="#gradient_ice" y1="79.754" y2="16.296"/><linearGradient id="gradient_ice-11" x1="12.681" x2="66.955" xlink:href="#gradient_ice" y1="73.506" y2="10.047"/><path d="m20.872 21.98-.224-.26a11.007 11.007 0 0 1 -2.648-7.159v-6.561h1a1 1 0 0 0 1-1v-4a1 1 0 0 0 -1-1h-12a1 1 0 0 0 -1 1v4a1 1 0 0 0 1 1h1v6.561a11 11 0 0 1 -2.65 7.16l-.22.258a13 13 0 0 0 -3.13 8.46v28.561a3 3 0 0 0 3 3h16a3 3 0 0 0 3-3v-28.561a13.009 13.009 0 0 0 -3.128-8.459zm-12.872-17.98h10v2h-10zm-1.35 19.279.22-.258a13 13 0 0 0 3.13-8.46v-6.561h6v6.561a13.009 13.009 0 0 0 3.128 8.459l.224.26a11.007 11.007 0 0 1 2.648 7.159v.115a7.5 7.5 0 0 1 -2-.495 9.479 9.479 0 0 0 -3.672-.659 9.485 9.485 0 0 0 -3.673.659 7.481 7.481 0 0 1 -3 .541 7.473 7.473 0 0 1 -2.993-.54 9.35 9.35 0 0 0 -2.625-.614 11.011 11.011 0 0 1 2.613-6.167zm14.35 36.721h-16a1 1 0 0 1 -1-1v-27.554a7.462 7.462 0 0 1 1.993.495 9.473 9.473 0 0 0 3.671.659 9.479 9.479 0 0 0 3.672-.659 7.487 7.487 0 0 1 3-.541 7.487 7.487 0 0 1 3 .541 9.417 9.417 0 0 0 2.664.617v26.442a1 1 0 0 1 -1 1z" fill="url(#gradient_ice)"/><path d="m13 35a8 8 0 1 0 8 8 8.009 8.009 0 0 0 -8-8zm0 14a6 6 0 1 1 6-6 6.006 6.006 0 0 1 -6 6z" fill="url(#gradient_ice-2)"/><path d="m8 39.9v2a6.009 6.009 0 0 1 4.357 1.866 7.925 7.925 0 0 0 5.643 2.334v-2a6.009 6.009 0 0 1 -4.357-1.866 7.925 7.925 0 0 0 -5.643-2.334z" fill="url(#gradient_ice-2)"/><path d="m13 16h2v2h-2z" fill="url(#gradient_ice-4)"/><path d="m11 21h2v2h-2z" fill="url(#gradient_ice-5)"/><path d="m14 25h2v2h-2z" fill="url(#gradient_ice-6)"/><path d="m8 26h2v2h-2z" fill="url(#gradient_ice-7)"/><path d="m35 42.828a1 1 0 0 0 .707-.293l2.829-2.828a1 1 0 0 0 0-1.414l-2.829-2.828a1 1 0 0 0 -1.414 0l-2.829 2.828a1 1 0 0 0 0 1.414l2.829 2.828a1 1 0 0 0 .707.293zm0-5.242 1.414 1.414-1.414 1.414-1.414-1.414z" fill="url(#gradient_ice-8)"/><path d="m36.707 44.465a1 1 0 0 0 -1.414 0l-2.829 2.828a1 1 0 0 0 0 1.414l2.829 2.828a1 1 0 0 0 1.414 0l2.829-2.828a1 1 0 0 0 0-1.414zm-.707 4.949-1.414-1.414 1.414-1.414 1.414 1.414z" fill="url(#gradient_ice-9)"/><path d="m47.293 43.465-2.829 2.828a1 1 0 0 0 0 1.414l2.829 2.828a1 1 0 0 0 1.414 0l2.829-2.828a1 1 0 0 0 0-1.414l-2.829-2.828a1 1 0 0 0 -1.414 0zm2.121 3.535-1.414 1.414-1.414-1.414 1.414-1.414z" fill="url(#gradient_ice-10)"/><path d="m61.5 2.14a.975.975 0 0 0 -.99-.01l-8.11 4.59a2.969 2.969 0 0 0 -1.62 1.83l-3.06 9.74c-2.02-.19-4.31-.29-6.72-.29-5.23 0-14 .39-14 3.03l1 33.98v5.99a1 1 0 0 0 1 1h24a1 1 0 0 0 1-1v-5.99l1-34.01c0-1.09-1.19-1.65-2.68-2.01l2.52-8.32 6.66-3.8a1 1 0 0 0 .5-.87v-3a.987.987 0 0 0 -.5-.86zm-13.38 21.53c.25-.02.49-.04.71-.07l-2.8 9.26c-.27.01-.53.03-.81.04zm4.12 8.33a23.114 23.114 0 0 1 -4.07.69l.4-1.33a21.675 21.675 0 0 1 3.67.64zm-7.66 2.93.83-.03-2.15 7.1h-.9zm-1.48-1.95c-.68.01-1.37.02-2.1.02-5.95 0-9.62-.52-11.25-1 1.62-.48 5.26-1 11.25-1 .95 0 1.84.02 2.71.04zm-2.1-12.98c2.18 0 4.25.09 6.1.24l-.48 1.55c-1.71.14-3.62.21-5.62.21a47.955 47.955 0 0 1 -11.13-1 47.384 47.384 0 0 1 11.13-1zm-11.95 2.83c2.59.8 7.55 1.17 11.95 1.17 1.74 0 3.43-.05 4.97-.15l-1.64 5.21q-1.575-.06-3.33-.06c-2.14 0-8.43.09-11.73 1.07zm22.95 37.17h-22v-4h22zm.03-6h-22.06l-.59-20.03c3.33.94 9.52 1.03 11.62 1.03.5 0 .99 0 1.47-.01l-2.42 7.71a1.01 1.01 0 0 0 .14.89 1 1 0 0 0 .81.41h3a1.008 1.008 0 0 0 .96-.71l2.58-8.54a29.271 29.271 0 0 0 5.08-.78zm.92-31.16-.22 7.22a22.114 22.114 0 0 0 -3.57-.65l1.86-6.13a16.156 16.156 0 0 0 1.93-.44zm-1.27-1.73.06-.21c.14.03.26.07.37.1-.13.03-.27.07-.43.11zm8.32-15.69-6.5 3.71a1.059 1.059 0 0 0 -.46.58l-3.57 11.8c-.22.03-.45.06-.69.08l3.91-12.44a1.071 1.071 0 0 1 .61-.65l6.7-3.79z" fill="url(#gradient_ice-11)"/></svg>